<mxfile host="app.diagrams.net" modified="2023-07-14T23:13:40.973Z" agent="Mozilla/5.0 (Windows NT 10.0; Win64; x64) AppleWebKit/537.36 (KHTML, like Gecko) Chrome/114.0.0.0 Safari/537.36" etag="Gyv-9tW1aRqxDhPVJxau" version="21.6.2" type="google">
  <diagram name="Página-1" id="eUqNXbCayfYbsTskmqjE">
    <mxGraphModel grid="1" page="1" gridSize="10" guides="1" tooltips="1" connect="1" arrows="1" fold="1" pageScale="1" pageWidth="827" pageHeight="1169" math="0" shadow="0">
      <root>
        <mxCell id="0" />
        <mxCell id="1" parent="0" />
        <mxCell id="pVyzBWS6QEFlNnxRM8wj-1" value="0&lt;br&gt;Dueño" style="rounded=0;whiteSpace=wrap;html=1;" vertex="1" parent="1">
          <mxGeometry x="50" y="50" width="120" height="60" as="geometry" />
        </mxCell>
        <mxCell id="pVyzBWS6QEFlNnxRM8wj-2" value="0&lt;br&gt;Empleado" style="rounded=0;whiteSpace=wrap;html=1;" vertex="1" parent="1">
          <mxGeometry x="590" y="50" width="120" height="60" as="geometry" />
        </mxCell>
        <mxCell id="pVyzBWS6QEFlNnxRM8wj-3" value="0&lt;br&gt;sistema gestion de deposito" style="ellipse;whiteSpace=wrap;html=1;aspect=fixed;" vertex="1" parent="1">
          <mxGeometry x="340" y="40" width="80" height="80" as="geometry" />
        </mxCell>
        <mxCell id="pVyzBWS6QEFlNnxRM8wj-4" value="" style="endArrow=classic;html=1;rounded=0;exitX=1;exitY=0.25;exitDx=0;exitDy=0;" edge="1" parent="1" source="pVyzBWS6QEFlNnxRM8wj-1">
          <mxGeometry width="50" height="50" relative="1" as="geometry">
            <mxPoint x="190" y="70" as="sourcePoint" />
            <mxPoint x="340" y="65" as="targetPoint" />
            <Array as="points">
              <mxPoint x="250" y="65" />
              <mxPoint x="270" y="65" />
            </Array>
          </mxGeometry>
        </mxCell>
        <mxCell id="pVyzBWS6QEFlNnxRM8wj-5" value="" style="endArrow=classic;html=1;rounded=0;" edge="1" parent="1">
          <mxGeometry width="50" height="50" relative="1" as="geometry">
            <mxPoint x="340" y="100" as="sourcePoint" />
            <mxPoint x="170" y="100" as="targetPoint" />
          </mxGeometry>
        </mxCell>
        <mxCell id="pVyzBWS6QEFlNnxRM8wj-6" value="" style="endArrow=classic;html=1;rounded=0;" edge="1" parent="1">
          <mxGeometry width="50" height="50" relative="1" as="geometry">
            <mxPoint x="590" y="100" as="sourcePoint" />
            <mxPoint x="420" y="100" as="targetPoint" />
          </mxGeometry>
        </mxCell>
        <mxCell id="pVyzBWS6QEFlNnxRM8wj-7" value="" style="endArrow=classic;html=1;rounded=0;exitX=1;exitY=0.25;exitDx=0;exitDy=0;" edge="1" parent="1">
          <mxGeometry width="50" height="50" relative="1" as="geometry">
            <mxPoint x="420" y="60" as="sourcePoint" />
            <mxPoint x="590" y="60" as="targetPoint" />
            <Array as="points" />
          </mxGeometry>
        </mxCell>
        <mxCell id="pVyzBWS6QEFlNnxRM8wj-8" value="nivel 0" style="rounded=0;whiteSpace=wrap;html=1;" vertex="1" parent="1">
          <mxGeometry x="5" y="10" width="75" height="30" as="geometry" />
        </mxCell>
        <mxCell id="pVyzBWS6QEFlNnxRM8wj-9" value="nivel 1" style="rounded=0;whiteSpace=wrap;html=1;" vertex="1" parent="1">
          <mxGeometry x="5" y="150" width="75" height="30" as="geometry" />
        </mxCell>
        <mxCell id="pVyzBWS6QEFlNnxRM8wj-10" value="Dueño" style="rounded=0;whiteSpace=wrap;html=1;" vertex="1" parent="1">
          <mxGeometry x="50" y="210" width="120" height="60" as="geometry" />
        </mxCell>
        <mxCell id="pVyzBWS6QEFlNnxRM8wj-11" value="Modificar precio" style="ellipse;whiteSpace=wrap;html=1;aspect=fixed;" vertex="1" parent="1">
          <mxGeometry x="250" y="150" width="80" height="80" as="geometry" />
        </mxCell>
        <mxCell id="pVyzBWS6QEFlNnxRM8wj-12" value="modificar el mercaderia" style="ellipse;whiteSpace=wrap;html=1;aspect=fixed;" vertex="1" parent="1">
          <mxGeometry x="250" y="270" width="80" height="80" as="geometry" />
        </mxCell>
        <mxCell id="pVyzBWS6QEFlNnxRM8wj-13" value="Empleado" style="rounded=0;whiteSpace=wrap;html=1;" vertex="1" parent="1">
          <mxGeometry x="680" y="210" width="120" height="60" as="geometry" />
        </mxCell>
        <mxCell id="pVyzBWS6QEFlNnxRM8wj-14" value="" style="endArrow=classic;html=1;rounded=0;" edge="1" parent="1">
          <mxGeometry width="50" height="50" relative="1" as="geometry">
            <mxPoint x="170" y="280" as="sourcePoint" />
            <mxPoint x="240" y="310" as="targetPoint" />
          </mxGeometry>
        </mxCell>
        <mxCell id="pVyzBWS6QEFlNnxRM8wj-15" value="" style="endArrow=classic;html=1;rounded=0;" edge="1" parent="1">
          <mxGeometry width="50" height="50" relative="1" as="geometry">
            <mxPoint x="180" y="230" as="sourcePoint" />
            <mxPoint x="240" y="200" as="targetPoint" />
          </mxGeometry>
        </mxCell>
        <mxCell id="pVyzBWS6QEFlNnxRM8wj-16" value="carga mercaderia" style="ellipse;whiteSpace=wrap;html=1;aspect=fixed;" vertex="1" parent="1">
          <mxGeometry y="310" width="80" height="80" as="geometry" />
        </mxCell>
        <mxCell id="pVyzBWS6QEFlNnxRM8wj-17" value="" style="endArrow=classic;html=1;rounded=0;exitX=0.5;exitY=1;exitDx=0;exitDy=0;" edge="1" parent="1" source="pVyzBWS6QEFlNnxRM8wj-16">
          <mxGeometry width="50" height="50" relative="1" as="geometry">
            <mxPoint x="590" y="225" as="sourcePoint" />
            <mxPoint x="650" y="330" as="targetPoint" />
            <Array as="points">
              <mxPoint x="180" y="410" />
              <mxPoint x="460" y="380" />
            </Array>
          </mxGeometry>
        </mxCell>
        <mxCell id="pVyzBWS6QEFlNnxRM8wj-18" value="" style="endArrow=none;html=1;rounded=0;" edge="1" parent="1">
          <mxGeometry width="50" height="50" relative="1" as="geometry">
            <mxPoint x="650" y="290" as="sourcePoint" />
            <mxPoint x="770" y="290" as="targetPoint" />
          </mxGeometry>
        </mxCell>
        <mxCell id="pVyzBWS6QEFlNnxRM8wj-19" value="" style="endArrow=none;html=1;rounded=0;" edge="1" parent="1">
          <mxGeometry width="50" height="50" relative="1" as="geometry">
            <mxPoint x="650" y="340" as="sourcePoint" />
            <mxPoint x="770" y="340" as="targetPoint" />
          </mxGeometry>
        </mxCell>
        <mxCell id="pVyzBWS6QEFlNnxRM8wj-20" value="productos" style="text;html=1;strokeColor=none;fillColor=none;align=center;verticalAlign=middle;whiteSpace=wrap;rounded=0;" vertex="1" parent="1">
          <mxGeometry x="680" y="300" width="60" height="30" as="geometry" />
        </mxCell>
        <mxCell id="pVyzBWS6QEFlNnxRM8wj-21" value="" style="endArrow=classic;html=1;rounded=0;exitX=0.25;exitY=1;exitDx=0;exitDy=0;entryX=0.5;entryY=0;entryDx=0;entryDy=0;" edge="1" parent="1" source="pVyzBWS6QEFlNnxRM8wj-10" target="pVyzBWS6QEFlNnxRM8wj-16">
          <mxGeometry width="50" height="50" relative="1" as="geometry">
            <mxPoint x="140" y="380" as="sourcePoint" />
            <mxPoint x="190" y="330" as="targetPoint" />
          </mxGeometry>
        </mxCell>
        <mxCell id="pVyzBWS6QEFlNnxRM8wj-22" value="informe_de_pedido" style="ellipse;whiteSpace=wrap;html=1;aspect=fixed;" vertex="1" parent="1">
          <mxGeometry x="490" y="110" width="110" height="110" as="geometry" />
        </mxCell>
        <mxCell id="pVyzBWS6QEFlNnxRM8wj-23" value="" style="endArrow=classic;html=1;rounded=0;exitX=0;exitY=0.25;exitDx=0;exitDy=0;entryX=1;entryY=0.5;entryDx=0;entryDy=0;" edge="1" parent="1" source="pVyzBWS6QEFlNnxRM8wj-13" target="pVyzBWS6QEFlNnxRM8wj-22">
          <mxGeometry width="50" height="50" relative="1" as="geometry">
            <mxPoint x="560" y="240" as="sourcePoint" />
            <mxPoint x="610" y="190" as="targetPoint" />
          </mxGeometry>
        </mxCell>
        <mxCell id="pVyzBWS6QEFlNnxRM8wj-24" value="" style="endArrow=classic;html=1;rounded=0;exitX=0;exitY=0.5;exitDx=0;exitDy=0;entryX=0.75;entryY=0;entryDx=0;entryDy=0;" edge="1" parent="1" source="pVyzBWS6QEFlNnxRM8wj-22" target="pVyzBWS6QEFlNnxRM8wj-10">
          <mxGeometry width="50" height="50" relative="1" as="geometry">
            <mxPoint x="480" y="330" as="sourcePoint" />
            <mxPoint x="220" y="130" as="targetPoint" />
            <Array as="points">
              <mxPoint x="370" y="140" />
              <mxPoint x="190" y="140" />
            </Array>
          </mxGeometry>
        </mxCell>
        <mxCell id="pVyzBWS6QEFlNnxRM8wj-25" value="" style="endArrow=classic;html=1;rounded=0;exitX=1;exitY=0.5;exitDx=0;exitDy=0;" edge="1" parent="1" source="pVyzBWS6QEFlNnxRM8wj-12">
          <mxGeometry width="50" height="50" relative="1" as="geometry">
            <mxPoint x="360" y="340" as="sourcePoint" />
            <mxPoint x="650" y="310" as="targetPoint" />
          </mxGeometry>
        </mxCell>
        <mxCell id="pVyzBWS6QEFlNnxRM8wj-26" value="" style="endArrow=classic;html=1;rounded=0;exitX=1;exitY=0.5;exitDx=0;exitDy=0;" edge="1" parent="1" source="pVyzBWS6QEFlNnxRM8wj-11">
          <mxGeometry width="50" height="50" relative="1" as="geometry">
            <mxPoint x="400" y="290" as="sourcePoint" />
            <mxPoint x="640" y="300" as="targetPoint" />
          </mxGeometry>
        </mxCell>
        <mxCell id="pVyzBWS6QEFlNnxRM8wj-27" value="" style="endArrow=classic;html=1;rounded=0;exitX=0;exitY=0.5;exitDx=0;exitDy=0;entryX=1;entryY=0.5;entryDx=0;entryDy=0;" edge="1" parent="1" source="pVyzBWS6QEFlNnxRM8wj-13" target="pVyzBWS6QEFlNnxRM8wj-28">
          <mxGeometry width="50" height="50" relative="1" as="geometry">
            <mxPoint x="330" y="280" as="sourcePoint" />
            <mxPoint x="530" y="240" as="targetPoint" />
          </mxGeometry>
        </mxCell>
        <mxCell id="pVyzBWS6QEFlNnxRM8wj-28" value="consultar producto" style="ellipse;whiteSpace=wrap;html=1;aspect=fixed;" vertex="1" parent="1">
          <mxGeometry x="360" y="220" width="60" height="60" as="geometry" />
        </mxCell>
        <mxCell id="pVyzBWS6QEFlNnxRM8wj-29" value="" style="endArrow=classic;html=1;rounded=0;exitX=0.5;exitY=1;exitDx=0;exitDy=0;" edge="1" parent="1" source="pVyzBWS6QEFlNnxRM8wj-28">
          <mxGeometry width="50" height="50" relative="1" as="geometry">
            <mxPoint x="540" y="440" as="sourcePoint" />
            <mxPoint x="630" y="320" as="targetPoint" />
          </mxGeometry>
        </mxCell>
        <mxCell id="pVyzBWS6QEFlNnxRM8wj-30" value="" style="endArrow=classic;html=1;rounded=0;exitX=1;exitY=1;exitDx=0;exitDy=0;" edge="1" parent="1" source="pVyzBWS6QEFlNnxRM8wj-13">
          <mxGeometry width="50" height="50" relative="1" as="geometry">
            <mxPoint x="700" y="500" as="sourcePoint" />
            <mxPoint x="770" y="310" as="targetPoint" />
          </mxGeometry>
        </mxCell>
        <mxCell id="pVyzBWS6QEFlNnxRM8wj-31" value="" style="endArrow=classic;html=1;rounded=0;exitX=0.75;exitY=1;exitDx=0;exitDy=0;" edge="1" parent="1" source="pVyzBWS6QEFlNnxRM8wj-10">
          <mxGeometry width="50" height="50" relative="1" as="geometry">
            <mxPoint x="210" y="400" as="sourcePoint" />
            <mxPoint x="700" y="350" as="targetPoint" />
            <Array as="points">
              <mxPoint x="330" y="400" />
              <mxPoint x="700" y="400" />
            </Array>
          </mxGeometry>
        </mxCell>
        <mxCell id="pVyzBWS6QEFlNnxRM8wj-32" value="cargar cantidad mercaderia" style="ellipse;whiteSpace=wrap;html=1;aspect=fixed;" vertex="1" parent="1">
          <mxGeometry x="110" y="310" width="80" height="80" as="geometry" />
        </mxCell>
        <mxCell id="pVyzBWS6QEFlNnxRM8wj-33" value="Dueño" style="rounded=0;whiteSpace=wrap;html=1;" vertex="1" parent="1">
          <mxGeometry x="20" y="520" width="120" height="60" as="geometry" />
        </mxCell>
        <mxCell id="pVyzBWS6QEFlNnxRM8wj-34" value="Empleado" style="rounded=0;whiteSpace=wrap;html=1;" vertex="1" parent="1">
          <mxGeometry x="690" y="520" width="120" height="60" as="geometry" />
        </mxCell>
        <mxCell id="pVyzBWS6QEFlNnxRM8wj-35" value="Elegir mercaderia" style="ellipse;whiteSpace=wrap;html=1;aspect=fixed;" vertex="1" parent="1">
          <mxGeometry x="150" y="610" width="60" height="60" as="geometry" />
        </mxCell>
        <mxCell id="pVyzBWS6QEFlNnxRM8wj-36" value="" style="endArrow=classic;html=1;rounded=0;exitX=0.5;exitY=1;exitDx=0;exitDy=0;entryX=-0.017;entryY=0.333;entryDx=0;entryDy=0;entryPerimeter=0;" edge="1" parent="1" source="pVyzBWS6QEFlNnxRM8wj-33" target="pVyzBWS6QEFlNnxRM8wj-35">
          <mxGeometry width="50" height="50" relative="1" as="geometry">
            <mxPoint x="60" y="700" as="sourcePoint" />
            <mxPoint x="110" y="650" as="targetPoint" />
          </mxGeometry>
        </mxCell>
        <mxCell id="pVyzBWS6QEFlNnxRM8wj-37" value="Ingresar precio" style="ellipse;whiteSpace=wrap;html=1;aspect=fixed;" vertex="1" parent="1">
          <mxGeometry x="190" y="470" width="70" height="70" as="geometry" />
        </mxCell>
        <mxCell id="pVyzBWS6QEFlNnxRM8wj-38" value="" style="endArrow=classic;html=1;rounded=0;exitX=1;exitY=0;exitDx=0;exitDy=0;entryX=0;entryY=0.5;entryDx=0;entryDy=0;" edge="1" parent="1" source="pVyzBWS6QEFlNnxRM8wj-33" target="pVyzBWS6QEFlNnxRM8wj-37">
          <mxGeometry width="50" height="50" relative="1" as="geometry">
            <mxPoint x="170" y="510" as="sourcePoint" />
            <mxPoint x="220" y="460" as="targetPoint" />
          </mxGeometry>
        </mxCell>
        <mxCell id="pVyzBWS6QEFlNnxRM8wj-39" value="" style="endArrow=classic;html=1;rounded=0;exitX=1;exitY=0;exitDx=0;exitDy=0;entryX=0;entryY=1;entryDx=0;entryDy=0;" edge="1" parent="1" source="pVyzBWS6QEFlNnxRM8wj-35" target="pVyzBWS6QEFlNnxRM8wj-34">
          <mxGeometry width="50" height="50" relative="1" as="geometry">
            <mxPoint x="270" y="620" as="sourcePoint" />
            <mxPoint x="320" y="570" as="targetPoint" />
          </mxGeometry>
        </mxCell>
        <mxCell id="pVyzBWS6QEFlNnxRM8wj-40" value="informe_de_pedidos" style="ellipse;whiteSpace=wrap;html=1;aspect=fixed;" vertex="1" parent="1">
          <mxGeometry x="610" y="590" width="100" height="100" as="geometry" />
        </mxCell>
        <mxCell id="pVyzBWS6QEFlNnxRM8wj-41" value="Base de datos" style="rounded=0;whiteSpace=wrap;html=1;" vertex="1" parent="1">
          <mxGeometry x="5" y="770" width="120" height="60" as="geometry" />
        </mxCell>
        <mxCell id="pVyzBWS6QEFlNnxRM8wj-42" value="" style="endArrow=classic;html=1;rounded=0;exitX=0.5;exitY=1;exitDx=0;exitDy=0;entryX=0.938;entryY=0.175;entryDx=0;entryDy=0;entryPerimeter=0;" edge="1" parent="1" source="pVyzBWS6QEFlNnxRM8wj-34" target="pVyzBWS6QEFlNnxRM8wj-40">
          <mxGeometry width="50" height="50" relative="1" as="geometry">
            <mxPoint x="750" y="730" as="sourcePoint" />
            <mxPoint x="800" y="680" as="targetPoint" />
          </mxGeometry>
        </mxCell>
        <mxCell id="pVyzBWS6QEFlNnxRM8wj-43" value="" style="endArrow=classic;html=1;rounded=0;exitX=0.5;exitY=1;exitDx=0;exitDy=0;entryX=0.75;entryY=1;entryDx=0;entryDy=0;" edge="1" parent="1" source="pVyzBWS6QEFlNnxRM8wj-40" target="pVyzBWS6QEFlNnxRM8wj-41">
          <mxGeometry width="50" height="50" relative="1" as="geometry">
            <mxPoint x="490" y="820" as="sourcePoint" />
            <mxPoint x="90" y="840" as="targetPoint" />
            <Array as="points">
              <mxPoint x="400" y="850" />
              <mxPoint x="95" y="850" />
            </Array>
          </mxGeometry>
        </mxCell>
        <mxCell id="pVyzBWS6QEFlNnxRM8wj-44" value="" style="endArrow=classic;html=1;rounded=0;exitX=0.25;exitY=0;exitDx=0;exitDy=0;entryX=0.125;entryY=1.067;entryDx=0;entryDy=0;entryPerimeter=0;" edge="1" parent="1" source="pVyzBWS6QEFlNnxRM8wj-41" target="pVyzBWS6QEFlNnxRM8wj-33">
          <mxGeometry width="50" height="50" relative="1" as="geometry">
            <mxPoint x="30" y="740" as="sourcePoint" />
            <mxPoint x="30" y="620" as="targetPoint" />
          </mxGeometry>
        </mxCell>
        <mxCell id="pVyzBWS6QEFlNnxRM8wj-45" value="" style="endArrow=none;html=1;rounded=0;" edge="1" parent="1">
          <mxGeometry width="50" height="50" relative="1" as="geometry">
            <mxPoint x="460" y="830" as="sourcePoint" />
            <mxPoint x="580" y="830" as="targetPoint" />
          </mxGeometry>
        </mxCell>
        <mxCell id="pVyzBWS6QEFlNnxRM8wj-46" value="" style="endArrow=none;html=1;rounded=0;" edge="1" parent="1">
          <mxGeometry width="50" height="50" relative="1" as="geometry">
            <mxPoint x="460" y="880" as="sourcePoint" />
            <mxPoint x="580" y="880" as="targetPoint" />
          </mxGeometry>
        </mxCell>
        <mxCell id="pVyzBWS6QEFlNnxRM8wj-47" value="productos" style="text;html=1;strokeColor=none;fillColor=none;align=center;verticalAlign=middle;whiteSpace=wrap;rounded=0;" vertex="1" parent="1">
          <mxGeometry x="490" y="840" width="60" height="30" as="geometry" />
        </mxCell>
        <mxCell id="pVyzBWS6QEFlNnxRM8wj-48" value="" style="endArrow=classic;html=1;rounded=0;exitX=0.5;exitY=1;exitDx=0;exitDy=0;" edge="1" parent="1" source="pVyzBWS6QEFlNnxRM8wj-35">
          <mxGeometry width="50" height="50" relative="1" as="geometry">
            <mxPoint x="180" y="820" as="sourcePoint" />
            <mxPoint x="510" y="830" as="targetPoint" />
            <Array as="points">
              <mxPoint x="350" y="800" />
            </Array>
          </mxGeometry>
        </mxCell>
        <mxCell id="pVyzBWS6QEFlNnxRM8wj-49" value="" style="endArrow=classic;html=1;rounded=0;exitX=1;exitY=0.6;exitDx=0;exitDy=0;exitPerimeter=0;" edge="1" parent="1" source="pVyzBWS6QEFlNnxRM8wj-37">
          <mxGeometry width="50" height="50" relative="1" as="geometry">
            <mxPoint x="360" y="590" as="sourcePoint" />
            <mxPoint x="520" y="830" as="targetPoint" />
          </mxGeometry>
        </mxCell>
        <mxCell id="pVyzBWS6QEFlNnxRM8wj-50" value="armar pedido" style="ellipse;whiteSpace=wrap;html=1;aspect=fixed;" vertex="1" parent="1">
          <mxGeometry x="460" y="490" width="80" height="80" as="geometry" />
        </mxCell>
        <mxCell id="pVyzBWS6QEFlNnxRM8wj-51" value="" style="endArrow=classic;html=1;rounded=0;exitX=0;exitY=0.5;exitDx=0;exitDy=0;entryX=1;entryY=0.625;entryDx=0;entryDy=0;entryPerimeter=0;" edge="1" parent="1" source="pVyzBWS6QEFlNnxRM8wj-34" target="pVyzBWS6QEFlNnxRM8wj-50">
          <mxGeometry width="50" height="50" relative="1" as="geometry">
            <mxPoint x="610" y="550" as="sourcePoint" />
            <mxPoint x="660" y="500" as="targetPoint" />
          </mxGeometry>
        </mxCell>
        <mxCell id="pVyzBWS6QEFlNnxRM8wj-52" value="" style="endArrow=classic;html=1;rounded=0;exitX=0.5;exitY=1;exitDx=0;exitDy=0;" edge="1" parent="1" source="pVyzBWS6QEFlNnxRM8wj-50">
          <mxGeometry width="50" height="50" relative="1" as="geometry">
            <mxPoint x="480" y="670" as="sourcePoint" />
            <mxPoint x="560" y="830" as="targetPoint" />
            <Array as="points">
              <mxPoint x="560" y="680" />
            </Array>
          </mxGeometry>
        </mxCell>
        <mxCell id="pVyzBWS6QEFlNnxRM8wj-53" value="" style="endArrow=classic;html=1;rounded=0;exitX=0.5;exitY=1;exitDx=0;exitDy=0;entryX=1;entryY=0.5;entryDx=0;entryDy=0;" edge="1" parent="1" source="pVyzBWS6QEFlNnxRM8wj-50" target="pVyzBWS6QEFlNnxRM8wj-41">
          <mxGeometry width="50" height="50" relative="1" as="geometry">
            <mxPoint x="440" y="720" as="sourcePoint" />
            <mxPoint x="190" y="790" as="targetPoint" />
            <Array as="points">
              <mxPoint x="310" y="790" />
            </Array>
          </mxGeometry>
        </mxCell>
        <mxCell id="pVyzBWS6QEFlNnxRM8wj-54" value="" style="endArrow=classic;html=1;rounded=0;exitX=0;exitY=1;exitDx=0;exitDy=0;entryX=1;entryY=0;entryDx=0;entryDy=0;" edge="1" parent="1" source="pVyzBWS6QEFlNnxRM8wj-35" target="pVyzBWS6QEFlNnxRM8wj-55">
          <mxGeometry width="50" height="50" relative="1" as="geometry">
            <mxPoint x="180" y="600" as="sourcePoint" />
            <mxPoint x="190" y="700" as="targetPoint" />
          </mxGeometry>
        </mxCell>
        <mxCell id="pVyzBWS6QEFlNnxRM8wj-55" value="tipo de mercaderia" style="ellipse;whiteSpace=wrap;html=1;aspect=fixed;" vertex="1" parent="1">
          <mxGeometry x="80" y="680" width="60" height="60" as="geometry" />
        </mxCell>
        <mxCell id="pVyzBWS6QEFlNnxRM8wj-56" value="" style="endArrow=classic;html=1;rounded=0;exitX=1;exitY=0.5;exitDx=0;exitDy=0;" edge="1" parent="1" source="pVyzBWS6QEFlNnxRM8wj-55">
          <mxGeometry width="50" height="50" relative="1" as="geometry">
            <mxPoint x="220" y="770" as="sourcePoint" />
            <mxPoint x="460" y="860" as="targetPoint" />
            <Array as="points">
              <mxPoint x="340" y="820" />
              <mxPoint x="400" y="840" />
            </Array>
          </mxGeometry>
        </mxCell>
        <mxCell id="pVyzBWS6QEFlNnxRM8wj-60" value="" style="endArrow=classic;html=1;rounded=0;exitX=0.5;exitY=1;exitDx=0;exitDy=0;entryX=0.5;entryY=0;entryDx=0;entryDy=0;" edge="1" parent="1" source="pVyzBWS6QEFlNnxRM8wj-37" target="pVyzBWS6QEFlNnxRM8wj-55">
          <mxGeometry width="50" height="50" relative="1" as="geometry">
            <mxPoint x="70" y="660" as="sourcePoint" />
            <mxPoint x="90" y="640" as="targetPoint" />
            <Array as="points">
              <mxPoint x="140" y="590" />
            </Array>
          </mxGeometry>
        </mxCell>
        <mxCell id="pVyzBWS6QEFlNnxRM8wj-61" value="registrar precio" style="ellipse;whiteSpace=wrap;html=1;aspect=fixed;" vertex="1" parent="1">
          <mxGeometry x="320" y="475" width="60" height="60" as="geometry" />
        </mxCell>
        <mxCell id="pVyzBWS6QEFlNnxRM8wj-62" value="" style="endArrow=classic;html=1;rounded=0;exitX=1;exitY=0.5;exitDx=0;exitDy=0;entryX=0;entryY=0.5;entryDx=0;entryDy=0;" edge="1" parent="1" source="pVyzBWS6QEFlNnxRM8wj-37" target="pVyzBWS6QEFlNnxRM8wj-61">
          <mxGeometry width="50" height="50" relative="1" as="geometry">
            <mxPoint x="270" y="500" as="sourcePoint" />
            <mxPoint x="320" y="450" as="targetPoint" />
          </mxGeometry>
        </mxCell>
        <mxCell id="pVyzBWS6QEFlNnxRM8wj-63" value="" style="endArrow=classic;html=1;rounded=0;exitX=1;exitY=1;exitDx=0;exitDy=0;entryX=1;entryY=0;entryDx=0;entryDy=0;" edge="1" parent="1" source="pVyzBWS6QEFlNnxRM8wj-61" target="pVyzBWS6QEFlNnxRM8wj-41">
          <mxGeometry width="50" height="50" relative="1" as="geometry">
            <mxPoint x="410" y="550" as="sourcePoint" />
            <mxPoint x="460" y="500" as="targetPoint" />
          </mxGeometry>
        </mxCell>
        <mxCell id="pVyzBWS6QEFlNnxRM8wj-64" value="chofer" style="rounded=0;whiteSpace=wrap;html=1;" vertex="1" parent="1">
          <mxGeometry x="690" y="810" width="120" height="60" as="geometry" />
        </mxCell>
        <mxCell id="pVyzBWS6QEFlNnxRM8wj-66" value="recibir pedido" style="ellipse;whiteSpace=wrap;html=1;aspect=fixed;" vertex="1" parent="1">
          <mxGeometry x="610" y="720" width="80" height="80" as="geometry" />
        </mxCell>
        <mxCell id="pVyzBWS6QEFlNnxRM8wj-67" value="" style="endArrow=classic;html=1;rounded=0;exitX=1;exitY=1;exitDx=0;exitDy=0;" edge="1" parent="1" source="pVyzBWS6QEFlNnxRM8wj-50" target="pVyzBWS6QEFlNnxRM8wj-66">
          <mxGeometry width="50" height="50" relative="1" as="geometry">
            <mxPoint x="810" y="650" as="sourcePoint" />
            <mxPoint x="860" y="600" as="targetPoint" />
          </mxGeometry>
        </mxCell>
        <mxCell id="pVyzBWS6QEFlNnxRM8wj-69" value="" style="endArrow=classic;html=1;rounded=0;exitX=0.5;exitY=0;exitDx=0;exitDy=0;entryX=1;entryY=0.5;entryDx=0;entryDy=0;" edge="1" parent="1" source="pVyzBWS6QEFlNnxRM8wj-64" target="pVyzBWS6QEFlNnxRM8wj-66">
          <mxGeometry width="50" height="50" relative="1" as="geometry">
            <mxPoint x="772.5" y="726" as="sourcePoint" />
            <mxPoint x="707.5" y="770" as="targetPoint" />
          </mxGeometry>
        </mxCell>
        <mxCell id="pVyzBWS6QEFlNnxRM8wj-70" value="recibir_informe" style="ellipse;whiteSpace=wrap;html=1;aspect=fixed;" vertex="1" parent="1">
          <mxGeometry x="290" y="640" width="80" height="80" as="geometry" />
        </mxCell>
        <mxCell id="pVyzBWS6QEFlNnxRM8wj-72" value="" style="endArrow=classic;html=1;rounded=0;exitX=0;exitY=0.375;exitDx=0;exitDy=0;entryX=1;entryY=0.5;entryDx=0;entryDy=0;exitPerimeter=0;" edge="1" parent="1" source="pVyzBWS6QEFlNnxRM8wj-70" target="pVyzBWS6QEFlNnxRM8wj-33">
          <mxGeometry width="50" height="50" relative="1" as="geometry">
            <mxPoint x="270" y="515" as="sourcePoint" />
            <mxPoint x="340" y="510" as="targetPoint" />
            <Array as="points">
              <mxPoint x="240" y="580" />
            </Array>
          </mxGeometry>
        </mxCell>
        <mxCell id="pVyzBWS6QEFlNnxRM8wj-73" value="" style="endArrow=classic;html=1;rounded=0;exitX=0;exitY=0.5;exitDx=0;exitDy=0;entryX=1;entryY=0.5;entryDx=0;entryDy=0;" edge="1" parent="1" source="pVyzBWS6QEFlNnxRM8wj-40" target="pVyzBWS6QEFlNnxRM8wj-70">
          <mxGeometry width="50" height="50" relative="1" as="geometry">
            <mxPoint x="575" y="690" as="sourcePoint" />
            <mxPoint x="425" y="680" as="targetPoint" />
          </mxGeometry>
        </mxCell>
        <mxCell id="pVyzBWS6QEFlNnxRM8wj-74" value="nivel 2" style="rounded=0;whiteSpace=wrap;html=1;" vertex="1" parent="1">
          <mxGeometry x="2.5" y="470" width="75" height="30" as="geometry" />
        </mxCell>
        <mxCell id="pVyzBWS6QEFlNnxRM8wj-75" value="Nivel 3&amp;nbsp;" style="rounded=0;whiteSpace=wrap;html=1;" vertex="1" parent="1">
          <mxGeometry x="5" y="900" width="75" height="30" as="geometry" />
        </mxCell>
        <mxCell id="pVyzBWS6QEFlNnxRM8wj-76" value="Dueño&amp;nbsp;" style="rounded=0;whiteSpace=wrap;html=1;" vertex="1" parent="1">
          <mxGeometry x="5" y="950" width="120" height="60" as="geometry" />
        </mxCell>
        <mxCell id="pVyzBWS6QEFlNnxRM8wj-77" value="Empleado" style="rounded=0;whiteSpace=wrap;html=1;" vertex="1" parent="1">
          <mxGeometry x="660" y="950" width="120" height="60" as="geometry" />
        </mxCell>
        <mxCell id="pVyzBWS6QEFlNnxRM8wj-78" value="Base de datos" style="rounded=0;whiteSpace=wrap;html=1;" vertex="1" parent="1">
          <mxGeometry x="5" y="1190" width="120" height="60" as="geometry" />
        </mxCell>
        <mxCell id="pVyzBWS6QEFlNnxRM8wj-79" value="chofer" style="rounded=0;whiteSpace=wrap;html=1;" vertex="1" parent="1">
          <mxGeometry x="680" y="1220" width="120" height="60" as="geometry" />
        </mxCell>
        <mxCell id="pVyzBWS6QEFlNnxRM8wj-80" value="2&lt;br&gt;Armar pedido" style="ellipse;whiteSpace=wrap;html=1;aspect=fixed;direction=south;" vertex="1" parent="1">
          <mxGeometry x="630" y="1100" width="80" height="80" as="geometry" />
        </mxCell>
        <mxCell id="pVyzBWS6QEFlNnxRM8wj-81" value="" style="endArrow=classic;html=1;rounded=0;exitX=0.25;exitY=1;exitDx=0;exitDy=0;entryX=0;entryY=0.5;entryDx=0;entryDy=0;" edge="1" parent="1" source="pVyzBWS6QEFlNnxRM8wj-77" target="pVyzBWS6QEFlNnxRM8wj-80">
          <mxGeometry width="50" height="50" relative="1" as="geometry">
            <mxPoint x="630" y="1100" as="sourcePoint" />
            <mxPoint x="680" y="1050" as="targetPoint" />
          </mxGeometry>
        </mxCell>
        <mxCell id="pVyzBWS6QEFlNnxRM8wj-83" value="" style="endArrow=classic;html=1;rounded=0;exitX=0;exitY=0.25;exitDx=0;exitDy=0;entryX=1;entryY=0.5;entryDx=0;entryDy=0;" edge="1" parent="1" source="pVyzBWS6QEFlNnxRM8wj-77" target="pVyzBWS6QEFlNnxRM8wj-99">
          <mxGeometry width="50" height="50" relative="1" as="geometry">
            <mxPoint x="290" y="1080" as="sourcePoint" />
            <mxPoint x="530" y="1070" as="targetPoint" />
          </mxGeometry>
        </mxCell>
        <mxCell id="pVyzBWS6QEFlNnxRM8wj-85" value="" style="endArrow=classic;html=1;rounded=0;exitX=0;exitY=1;exitDx=0;exitDy=0;entryX=1;entryY=0.25;entryDx=0;entryDy=0;" edge="1" parent="1" target="pVyzBWS6QEFlNnxRM8wj-78">
          <mxGeometry width="50" height="50" relative="1" as="geometry">
            <mxPoint x="281.71572875253787" y="1157.2842712474621" as="sourcePoint" />
            <mxPoint x="270" y="1120" as="targetPoint" />
          </mxGeometry>
        </mxCell>
        <mxCell id="pVyzBWS6QEFlNnxRM8wj-90" value="emitir ticket" style="ellipse;whiteSpace=wrap;html=1;aspect=fixed;" vertex="1" parent="1">
          <mxGeometry x="480" y="1169" width="80" height="80" as="geometry" />
        </mxCell>
        <mxCell id="pVyzBWS6QEFlNnxRM8wj-91" value="" style="endArrow=classic;html=1;rounded=0;exitX=1;exitY=1;exitDx=0;exitDy=0;entryX=0.5;entryY=0;entryDx=0;entryDy=0;" edge="1" parent="1" source="pVyzBWS6QEFlNnxRM8wj-80" target="pVyzBWS6QEFlNnxRM8wj-90">
          <mxGeometry width="50" height="50" relative="1" as="geometry">
            <mxPoint x="770" y="1100" as="sourcePoint" />
            <mxPoint x="820" y="1050" as="targetPoint" />
          </mxGeometry>
        </mxCell>
        <mxCell id="pVyzBWS6QEFlNnxRM8wj-92" value="" style="endArrow=classic;html=1;rounded=0;exitX=0.425;exitY=0.988;exitDx=0;exitDy=0;exitPerimeter=0;entryX=0.5;entryY=1;entryDx=0;entryDy=0;" edge="1" parent="1" source="pVyzBWS6QEFlNnxRM8wj-90" target="pVyzBWS6QEFlNnxRM8wj-78">
          <mxGeometry width="50" height="50" relative="1" as="geometry">
            <mxPoint x="310" y="1440" as="sourcePoint" />
            <mxPoint x="40" y="1350" as="targetPoint" />
            <Array as="points">
              <mxPoint x="450" y="1250" />
              <mxPoint x="290" y="1350" />
              <mxPoint x="65" y="1350" />
            </Array>
          </mxGeometry>
        </mxCell>
        <mxCell id="pVyzBWS6QEFlNnxRM8wj-94" value="" style="endArrow=classic;html=1;rounded=0;exitX=0.25;exitY=0;exitDx=0;exitDy=0;entryX=0.25;entryY=1;entryDx=0;entryDy=0;" edge="1" parent="1" source="pVyzBWS6QEFlNnxRM8wj-78" target="pVyzBWS6QEFlNnxRM8wj-76">
          <mxGeometry width="50" height="50" relative="1" as="geometry">
            <mxPoint x="40" y="1170" as="sourcePoint" />
            <mxPoint x="90" y="1120" as="targetPoint" />
          </mxGeometry>
        </mxCell>
        <mxCell id="pVyzBWS6QEFlNnxRM8wj-95" value="2&lt;br&gt;tipo de producto" style="ellipse;whiteSpace=wrap;html=1;aspect=fixed;" vertex="1" parent="1">
          <mxGeometry x="210" y="940" width="80" height="80" as="geometry" />
        </mxCell>
        <mxCell id="pVyzBWS6QEFlNnxRM8wj-96" value="" style="endArrow=classic;html=1;rounded=0;exitX=1;exitY=0.25;exitDx=0;exitDy=0;entryX=-0.025;entryY=0.413;entryDx=0;entryDy=0;entryPerimeter=0;" edge="1" parent="1" source="pVyzBWS6QEFlNnxRM8wj-76" target="pVyzBWS6QEFlNnxRM8wj-95">
          <mxGeometry width="50" height="50" relative="1" as="geometry">
            <mxPoint x="130" y="1010" as="sourcePoint" />
            <mxPoint x="180" y="960" as="targetPoint" />
          </mxGeometry>
        </mxCell>
        <mxCell id="pVyzBWS6QEFlNnxRM8wj-97" value="registrar producto" style="ellipse;whiteSpace=wrap;html=1;aspect=fixed;" vertex="1" parent="1">
          <mxGeometry x="70" y="1035" width="80" height="80" as="geometry" />
        </mxCell>
        <mxCell id="pVyzBWS6QEFlNnxRM8wj-98" value="" style="endArrow=classic;html=1;rounded=0;exitX=0.5;exitY=1;exitDx=0;exitDy=0;entryX=0.75;entryY=0;entryDx=0;entryDy=0;" edge="1" parent="1" source="pVyzBWS6QEFlNnxRM8wj-97" target="pVyzBWS6QEFlNnxRM8wj-78">
          <mxGeometry width="50" height="50" relative="1" as="geometry">
            <mxPoint x="100" y="1090" as="sourcePoint" />
            <mxPoint x="150" y="1040" as="targetPoint" />
          </mxGeometry>
        </mxCell>
        <mxCell id="pVyzBWS6QEFlNnxRM8wj-118" style="edgeStyle=orthogonalEdgeStyle;rounded=0;orthogonalLoop=1;jettySize=auto;html=1;exitX=0.5;exitY=0;exitDx=0;exitDy=0;entryX=0.75;entryY=1;entryDx=0;entryDy=0;" edge="1" parent="1" source="pVyzBWS6QEFlNnxRM8wj-99" target="pVyzBWS6QEFlNnxRM8wj-117">
          <mxGeometry relative="1" as="geometry" />
        </mxCell>
        <mxCell id="pVyzBWS6QEFlNnxRM8wj-99" value="escanear producto" style="ellipse;whiteSpace=wrap;html=1;aspect=fixed;" vertex="1" parent="1">
          <mxGeometry x="390" y="1000" width="80" height="80" as="geometry" />
        </mxCell>
        <mxCell id="pVyzBWS6QEFlNnxRM8wj-100" value="" style="endArrow=classic;html=1;rounded=0;exitX=0.5;exitY=1;exitDx=0;exitDy=0;entryX=1;entryY=0.5;entryDx=0;entryDy=0;" edge="1" parent="1" source="pVyzBWS6QEFlNnxRM8wj-99">
          <mxGeometry width="50" height="50" relative="1" as="geometry">
            <mxPoint x="410" y="1150" as="sourcePoint" />
            <mxPoint x="350" y="1129" as="targetPoint" />
          </mxGeometry>
        </mxCell>
        <mxCell id="pVyzBWS6QEFlNnxRM8wj-103" value="cantidad&lt;br&gt;de producto" style="ellipse;whiteSpace=wrap;html=1;aspect=fixed;" vertex="1" parent="1">
          <mxGeometry x="190" y="1045" width="70" height="70" as="geometry" />
        </mxCell>
        <mxCell id="pVyzBWS6QEFlNnxRM8wj-104" value="" style="endArrow=classic;html=1;rounded=0;exitX=0.5;exitY=1;exitDx=0;exitDy=0;entryX=0.5;entryY=0;entryDx=0;entryDy=0;" edge="1" parent="1" source="pVyzBWS6QEFlNnxRM8wj-95" target="pVyzBWS6QEFlNnxRM8wj-103">
          <mxGeometry width="50" height="50" relative="1" as="geometry">
            <mxPoint x="340" y="1020" as="sourcePoint" />
            <mxPoint x="390" y="970" as="targetPoint" />
          </mxGeometry>
        </mxCell>
        <mxCell id="pVyzBWS6QEFlNnxRM8wj-105" value="" style="endArrow=classic;html=1;rounded=0;exitX=0;exitY=1;exitDx=0;exitDy=0;entryX=1.038;entryY=0.6;entryDx=0;entryDy=0;entryPerimeter=0;" edge="1" parent="1" source="pVyzBWS6QEFlNnxRM8wj-103" target="pVyzBWS6QEFlNnxRM8wj-97">
          <mxGeometry width="50" height="50" relative="1" as="geometry">
            <mxPoint x="180" y="1280" as="sourcePoint" />
            <mxPoint x="230" y="1230" as="targetPoint" />
          </mxGeometry>
        </mxCell>
        <mxCell id="pVyzBWS6QEFlNnxRM8wj-106" value="recibir_pedido" style="ellipse;whiteSpace=wrap;html=1;aspect=fixed;" vertex="1" parent="1">
          <mxGeometry x="520" y="1270" width="80" height="80" as="geometry" />
        </mxCell>
        <mxCell id="pVyzBWS6QEFlNnxRM8wj-107" value="" style="endArrow=classic;html=1;rounded=0;exitX=0.5;exitY=1;exitDx=0;exitDy=0;entryX=1;entryY=0.5;entryDx=0;entryDy=0;" edge="1" parent="1" source="pVyzBWS6QEFlNnxRM8wj-79" target="pVyzBWS6QEFlNnxRM8wj-106">
          <mxGeometry width="50" height="50" relative="1" as="geometry">
            <mxPoint x="780" y="1330" as="sourcePoint" />
            <mxPoint x="830" y="1280" as="targetPoint" />
            <Array as="points">
              <mxPoint x="630" y="1300" />
            </Array>
          </mxGeometry>
        </mxCell>
        <mxCell id="pVyzBWS6QEFlNnxRM8wj-111" value="recibri_destino" style="ellipse;whiteSpace=wrap;html=1;aspect=fixed;" vertex="1" parent="1">
          <mxGeometry x="540" y="1390" width="80" height="80" as="geometry" />
        </mxCell>
        <mxCell id="pVyzBWS6QEFlNnxRM8wj-113" value="" style="endArrow=classic;html=1;rounded=0;exitX=1;exitY=0.5;exitDx=0;exitDy=0;entryX=0.5;entryY=0;entryDx=0;entryDy=0;" edge="1" parent="1" source="pVyzBWS6QEFlNnxRM8wj-80" target="pVyzBWS6QEFlNnxRM8wj-106">
          <mxGeometry width="50" height="50" relative="1" as="geometry">
            <mxPoint x="732" y="1110" as="sourcePoint" />
            <mxPoint x="660" y="1122" as="targetPoint" />
          </mxGeometry>
        </mxCell>
        <mxCell id="pVyzBWS6QEFlNnxRM8wj-114" value="" style="endArrow=classic;html=1;rounded=0;exitX=0.5;exitY=1;exitDx=0;exitDy=0;entryX=0.5;entryY=0;entryDx=0;entryDy=0;" edge="1" parent="1" source="pVyzBWS6QEFlNnxRM8wj-106" target="pVyzBWS6QEFlNnxRM8wj-111">
          <mxGeometry width="50" height="50" relative="1" as="geometry">
            <mxPoint x="579.5" y="1300" as="sourcePoint" />
            <mxPoint x="579.5" y="1375" as="targetPoint" />
          </mxGeometry>
        </mxCell>
        <mxCell id="pVyzBWS6QEFlNnxRM8wj-115" value="" style="endArrow=none;html=1;rounded=0;" edge="1" parent="1">
          <mxGeometry width="50" height="50" relative="1" as="geometry">
            <mxPoint x="330" y="930" as="sourcePoint" />
            <mxPoint x="450" y="930" as="targetPoint" />
          </mxGeometry>
        </mxCell>
        <mxCell id="pVyzBWS6QEFlNnxRM8wj-116" value="" style="endArrow=none;html=1;rounded=0;" edge="1" parent="1">
          <mxGeometry width="50" height="50" relative="1" as="geometry">
            <mxPoint x="330" y="980" as="sourcePoint" />
            <mxPoint x="450" y="980" as="targetPoint" />
          </mxGeometry>
        </mxCell>
        <mxCell id="pVyzBWS6QEFlNnxRM8wj-117" value="productos" style="text;html=1;strokeColor=none;fillColor=none;align=center;verticalAlign=middle;whiteSpace=wrap;rounded=0;" vertex="1" parent="1">
          <mxGeometry x="360" y="940" width="60" height="30" as="geometry" />
        </mxCell>
        <mxCell id="pVyzBWS6QEFlNnxRM8wj-119" value="3&lt;br&gt;Controlar inventario" style="ellipse;whiteSpace=wrap;html=1;aspect=fixed;direction=south;" vertex="1" parent="1">
          <mxGeometry x="270" y="1100" width="80" height="80" as="geometry" />
        </mxCell>
        <mxCell id="pVyzBWS6QEFlNnxRM8wj-122" value="2&lt;br&gt;Informe_de_pedido" style="ellipse;whiteSpace=wrap;html=1;aspect=fixed;direction=south;" vertex="1" parent="1">
          <mxGeometry x="370" y="1115" width="100" height="100" as="geometry" />
        </mxCell>
        <mxCell id="pVyzBWS6QEFlNnxRM8wj-123" value="" style="endArrow=classic;html=1;rounded=0;exitX=-0.017;exitY=0.9;exitDx=0;exitDy=0;entryX=0;entryY=0;entryDx=0;entryDy=0;exitPerimeter=0;" edge="1" parent="1" source="pVyzBWS6QEFlNnxRM8wj-77" target="pVyzBWS6QEFlNnxRM8wj-122">
          <mxGeometry width="50" height="50" relative="1" as="geometry">
            <mxPoint x="511" y="1017" as="sourcePoint" />
            <mxPoint x="509" y="1089" as="targetPoint" />
          </mxGeometry>
        </mxCell>
        <mxCell id="pVyzBWS6QEFlNnxRM8wj-124" value="" style="endArrow=classic;html=1;rounded=0;exitX=1;exitY=1;exitDx=0;exitDy=0;entryX=1;entryY=1;entryDx=0;entryDy=0;" edge="1" parent="1" source="pVyzBWS6QEFlNnxRM8wj-122" target="pVyzBWS6QEFlNnxRM8wj-76">
          <mxGeometry width="50" height="50" relative="1" as="geometry">
            <mxPoint x="300" y="1180" as="sourcePoint" />
            <mxPoint x="220" y="1229" as="targetPoint" />
            <Array as="points">
              <mxPoint x="240" y="1190" />
            </Array>
          </mxGeometry>
        </mxCell>
        <mxCell id="pVyzBWS6QEFlNnxRM8wj-126" style="edgeStyle=orthogonalEdgeStyle;rounded=0;orthogonalLoop=1;jettySize=auto;html=1;exitX=0;exitY=0.5;exitDx=0;exitDy=0;entryX=0.25;entryY=1;entryDx=0;entryDy=0;" edge="1" parent="1" source="pVyzBWS6QEFlNnxRM8wj-125" target="pVyzBWS6QEFlNnxRM8wj-78">
          <mxGeometry relative="1" as="geometry" />
        </mxCell>
        <mxCell id="pVyzBWS6QEFlNnxRM8wj-125" value="informar_paquete&lt;br&gt;_entregado" style="ellipse;whiteSpace=wrap;html=1;aspect=fixed;" vertex="1" parent="1">
          <mxGeometry x="330" y="1390" width="80" height="80" as="geometry" />
        </mxCell>
        <mxCell id="pVyzBWS6QEFlNnxRM8wj-127" value="" style="endArrow=classic;html=1;rounded=0;exitX=0;exitY=0.5;exitDx=0;exitDy=0;entryX=1;entryY=0.5;entryDx=0;entryDy=0;" edge="1" parent="1" source="pVyzBWS6QEFlNnxRM8wj-111" target="pVyzBWS6QEFlNnxRM8wj-125">
          <mxGeometry width="50" height="50" relative="1" as="geometry">
            <mxPoint x="480" y="1370" as="sourcePoint" />
            <mxPoint x="500" y="1410" as="targetPoint" />
          </mxGeometry>
        </mxCell>
        <mxCell id="pVyzBWS6QEFlNnxRM8wj-128" value="1" style="text;html=1;align=center;verticalAlign=middle;resizable=0;points=[];autosize=1;strokeColor=none;fillColor=none;" vertex="1" parent="1">
          <mxGeometry x="275" y="150" width="30" height="30" as="geometry" />
        </mxCell>
        <mxCell id="pVyzBWS6QEFlNnxRM8wj-129" value="1" style="text;html=1;align=center;verticalAlign=middle;resizable=0;points=[];autosize=1;strokeColor=none;fillColor=none;" vertex="1" parent="1">
          <mxGeometry x="275" y="270" width="30" height="30" as="geometry" />
        </mxCell>
        <mxCell id="pVyzBWS6QEFlNnxRM8wj-130" value="1" style="text;html=1;align=center;verticalAlign=middle;resizable=0;points=[];autosize=1;strokeColor=none;fillColor=none;" vertex="1" parent="1">
          <mxGeometry x="135" y="310" width="30" height="30" as="geometry" />
        </mxCell>
        <mxCell id="pVyzBWS6QEFlNnxRM8wj-131" value="1" style="text;html=1;align=center;verticalAlign=middle;resizable=0;points=[];autosize=1;strokeColor=none;fillColor=none;" vertex="1" parent="1">
          <mxGeometry x="25" y="310" width="30" height="30" as="geometry" />
        </mxCell>
        <mxCell id="pVyzBWS6QEFlNnxRM8wj-132" value="1" style="text;html=1;align=center;verticalAlign=middle;resizable=0;points=[];autosize=1;strokeColor=none;fillColor=none;" vertex="1" parent="1">
          <mxGeometry x="35" y="320" width="30" height="30" as="geometry" />
        </mxCell>
        <mxCell id="pVyzBWS6QEFlNnxRM8wj-133" value="1" style="text;html=1;align=center;verticalAlign=middle;resizable=0;points=[];autosize=1;strokeColor=none;fillColor=none;" vertex="1" parent="1">
          <mxGeometry x="515" y="140" width="30" height="30" as="geometry" />
        </mxCell>
        <mxCell id="pVyzBWS6QEFlNnxRM8wj-134" value="1" style="text;html=1;align=center;verticalAlign=middle;resizable=0;points=[];autosize=1;strokeColor=none;fillColor=none;" vertex="1" parent="1">
          <mxGeometry x="375" y="220" width="30" height="30" as="geometry" />
        </mxCell>
        <mxCell id="pVyzBWS6QEFlNnxRM8wj-135" value="2" style="text;html=1;align=center;verticalAlign=middle;resizable=0;points=[];autosize=1;strokeColor=none;fillColor=none;" vertex="1" parent="1">
          <mxGeometry x="485" y="500" width="30" height="30" as="geometry" />
        </mxCell>
        <mxCell id="pVyzBWS6QEFlNnxRM8wj-136" value="1" style="text;html=1;align=center;verticalAlign=middle;resizable=0;points=[];autosize=1;strokeColor=none;fillColor=none;" vertex="1" parent="1">
          <mxGeometry x="645" y="600" width="30" height="30" as="geometry" />
        </mxCell>
        <mxCell id="pVyzBWS6QEFlNnxRM8wj-137" value="2" style="text;html=1;align=center;verticalAlign=middle;resizable=0;points=[];autosize=1;strokeColor=none;fillColor=none;" vertex="1" parent="1">
          <mxGeometry x="635" y="730" width="30" height="30" as="geometry" />
        </mxCell>
        <mxCell id="pVyzBWS6QEFlNnxRM8wj-138" value="2" style="text;html=1;align=center;verticalAlign=middle;resizable=0;points=[];autosize=1;strokeColor=none;fillColor=none;" vertex="1" parent="1">
          <mxGeometry x="315" y="640" width="30" height="30" as="geometry" />
        </mxCell>
        <mxCell id="pVyzBWS6QEFlNnxRM8wj-141" value="2" style="text;html=1;align=center;verticalAlign=middle;resizable=0;points=[];autosize=1;strokeColor=none;fillColor=none;" vertex="1" parent="1">
          <mxGeometry x="345" y="470" width="30" height="30" as="geometry" />
        </mxCell>
        <mxCell id="pVyzBWS6QEFlNnxRM8wj-142" value="2" style="text;html=1;align=center;verticalAlign=middle;resizable=0;points=[];autosize=1;strokeColor=none;fillColor=none;" vertex="1" parent="1">
          <mxGeometry x="210" y="470" width="30" height="30" as="geometry" />
        </mxCell>
        <mxCell id="pVyzBWS6QEFlNnxRM8wj-143" value="2" style="text;html=1;align=center;verticalAlign=middle;resizable=0;points=[];autosize=1;strokeColor=none;fillColor=none;" vertex="1" parent="1">
          <mxGeometry x="165" y="610" width="30" height="30" as="geometry" />
        </mxCell>
        <mxCell id="pVyzBWS6QEFlNnxRM8wj-144" value="2" style="text;html=1;align=center;verticalAlign=middle;resizable=0;points=[];autosize=1;strokeColor=none;fillColor=none;" vertex="1" parent="1">
          <mxGeometry x="95" y="680" width="30" height="30" as="geometry" />
        </mxCell>
        <mxCell id="pVyzBWS6QEFlNnxRM8wj-146" value="3" style="text;html=1;align=center;verticalAlign=middle;resizable=0;points=[];autosize=1;strokeColor=none;fillColor=none;" vertex="1" parent="1">
          <mxGeometry x="210" y="1045" width="30" height="30" as="geometry" />
        </mxCell>
        <mxCell id="pVyzBWS6QEFlNnxRM8wj-147" value="3" style="text;html=1;align=center;verticalAlign=middle;resizable=0;points=[];autosize=1;strokeColor=none;fillColor=none;" vertex="1" parent="1">
          <mxGeometry x="95" y="1035" width="30" height="30" as="geometry" />
        </mxCell>
        <mxCell id="pVyzBWS6QEFlNnxRM8wj-148" value="3" style="text;html=1;align=center;verticalAlign=middle;resizable=0;points=[];autosize=1;strokeColor=none;fillColor=none;" vertex="1" parent="1">
          <mxGeometry x="420" y="1005" width="30" height="30" as="geometry" />
        </mxCell>
        <mxCell id="pVyzBWS6QEFlNnxRM8wj-149" value="3" style="text;html=1;align=center;verticalAlign=middle;resizable=0;points=[];autosize=1;strokeColor=none;fillColor=none;" vertex="1" parent="1">
          <mxGeometry x="505" y="1169" width="30" height="30" as="geometry" />
        </mxCell>
        <mxCell id="pVyzBWS6QEFlNnxRM8wj-150" value="3" style="text;html=1;align=center;verticalAlign=middle;resizable=0;points=[];autosize=1;strokeColor=none;fillColor=none;" vertex="1" parent="1">
          <mxGeometry x="355" y="1390" width="30" height="30" as="geometry" />
        </mxCell>
        <mxCell id="pVyzBWS6QEFlNnxRM8wj-151" value="3" style="text;html=1;align=center;verticalAlign=middle;resizable=0;points=[];autosize=1;strokeColor=none;fillColor=none;" vertex="1" parent="1">
          <mxGeometry x="565" y="1390" width="30" height="30" as="geometry" />
        </mxCell>
        <mxCell id="pVyzBWS6QEFlNnxRM8wj-152" value="2" style="text;html=1;align=center;verticalAlign=middle;resizable=0;points=[];autosize=1;strokeColor=none;fillColor=none;" vertex="1" parent="1">
          <mxGeometry x="550" y="1280" width="30" height="30" as="geometry" />
        </mxCell>
      </root>
    </mxGraphModel>
  </diagram>
</mxfile>
